# Blender v2.69 (sub 8) OBJ File: 'blockHeight1.blend'
# www.blender.org
o mainObject.001_Cube.005
v 0.634895 0.634894 -0.952343
v 0.952343 0.952343 -0.634896
v 0.634895 0.952343 -0.634896
v 0.952341 -0.952343 -0.634896
v 0.634893 -0.952343 -0.634896
v 0.952342 -0.952343 0.634894
v 0.952342 -0.634896 0.634894
v 0.634895 -0.952343 0.634894
v -0.634895 -0.634896 0.952343
v -0.952343 -0.634895 0.634896
v 0.634895 0.634895 0.952343
v 0.952343 0.634894 0.634894
v 0.634896 0.634895 0.634895
v 0.634896 -0.634896 0.952342
v 0.634895 -0.634896 0.634894
v 0.634895 0.634894 -0.634896
v 0.952342 0.634894 -0.634896
v 0.634894 -0.634896 -0.952343
v 0.634893 -0.634896 -0.634896
v 0.952341 -0.634896 -0.634896
v -0.634895 0.634895 0.952343
v -0.634895 0.634895 0.634896
v -0.952343 0.634895 0.634896
v -0.634895 -0.634895 0.634896
v -0.634895 0.634896 -0.952343
v -0.634895 0.634895 -0.634896
v -0.634897 -0.634894 -0.952342
v -0.634897 -0.634894 -0.634895
v -0.952343 -0.634895 -0.634896
v 0.634895 0.952343 0.634895
v 0.952344 0.952343 0.634894
v -0.634895 0.952343 -0.634895
v -0.952343 0.952343 -0.634895
v -0.952343 0.634895 -0.634896
v -0.634895 0.952343 0.634895
v -0.952343 0.952343 0.634895
v -0.634897 -0.952342 -0.634895
v -0.952343 -0.952343 -0.634895
v -0.634895 -0.952343 0.634895
v -0.952343 -0.952343 0.634895
v 0.952342 0.952343 -0.952342
v 0.634895 0.952343 -0.952342
v -0.634895 0.952343 -0.952342
v -0.952343 0.952343 -0.952342
v 0.952342 0.952343 0.952343
v 0.634895 0.952343 0.952343
v -0.634895 0.952343 0.952343
v -0.952343 0.952343 0.952343
v 0.634895 -0.952343 -0.952343
v 0.952342 -0.952343 -0.952343
v -0.634895 -0.952343 -0.952343
v -0.952343 -0.952343 -0.952343
v 0.952342 -0.952343 0.952342
v 0.634895 -0.952343 0.952342
v -0.634895 -0.952343 0.952342
v -0.952343 -0.952343 0.952342
vt 0.475954 0.733073
vt 0.522568 0.733073
vt 0.522568 0.779687
vt 0.104518 0.384202
vt 0.057903 0.384203
vt 0.057902 0.337589
vt 0.684982 0.824827
vt 0.684983 0.638369
vt 0.731597 0.638368
vt 0.266927 0.290973
vt 0.220312 0.290973
vt 0.220313 0.104514
vt 0.522570 0.337587
vt 0.569184 0.337587
vt 0.569184 0.384202
vt 0.475954 0.453386
vt 0.475953 0.406772
vt 0.522568 0.406771
vt 0.522569 0.011285
vt 0.569184 0.011285
vt 0.569184 0.057900
vt 0.266927 0.057900
vt 0.266927 0.011285
vt 0.313542 0.011285
vt 0.778212 0.824827
vt 0.731597 0.824827
vt 0.104515 0.057901
vt 0.057901 0.057900
vt 0.057902 0.011285
vt 0.313542 0.057900
vt 0.313543 0.337587
vt 0.266927 0.104514
vt 0.638368 0.360156
vt 0.824826 0.360156
vt 0.824827 0.406771
vt 0.360156 0.290972
vt 0.151130 0.057901
vt 0.151129 0.104516
vt 0.475955 0.337587
vt 0.475955 0.290973
vt 0.266928 0.384203
vt 0.266928 0.337588
vt 0.638368 0.522570
vt 0.638368 0.475955
vt 0.824826 0.475956
vt 0.429340 0.942101
vt 0.429340 0.895486
vt 0.615799 0.895486
vt 0.638368 0.615799
vt 0.638368 0.569184
vt 0.824826 0.569184
vt 0.057900 0.290974
vt 0.104516 0.337588
vt 0.429340 0.500001
vt 0.475955 0.500001
vt 0.475955 0.686459
vt 0.824826 0.057900
vt 0.638368 0.057899
vt 0.638369 0.011285
vt 0.824826 0.104514
vt 0.638368 0.104514
vt 0.569184 0.290973
vt 0.569184 0.500001
vt 0.615799 0.500001
vt 0.615798 0.686460
vt 0.824827 0.151129
vt 0.638368 0.151129
vt 0.406771 0.615802
vt 0.406771 0.662417
vt 0.220313 0.662416
vt 0.615799 0.988715
vt 0.429340 0.988715
vt 0.220313 0.709031
vt 0.406771 0.709031
vt 0.406771 0.755646
vt 0.197743 0.104516
vt 0.197743 0.290972
vt 0.824826 0.522570
vt 0.824826 0.824827
vt 0.778212 0.638369
vt 0.151129 0.615802
vt 0.197743 0.615802
vt 0.197743 0.802261
vt 0.475955 0.104515
vt 0.429341 0.290973
vt 0.522569 0.453386
vt 0.569184 0.453386
vt 0.011285 0.593232
vt 0.011285 0.406773
vt 0.057900 0.406773
vt 0.824826 0.313542
vt 0.406771 0.290972
vt 0.360156 0.104514
vt 0.638368 0.429340
vt 0.151129 0.406774
vt 0.197744 0.406775
vt 0.197744 0.593231
vt 0.057900 0.593232
vt 0.104515 0.406774
vt 0.638368 0.824827
vt 0.638368 0.638369
vt 0.151129 0.593232
vt 0.406771 0.802260
vt 0.220313 0.802260
vt 0.011286 0.290974
vt 0.011285 0.104514
vt 0.824826 0.266927
vt 0.638368 0.313542
vt 0.429340 0.848871
vt 0.615799 0.848872
vt 0.615799 0.290973
vt 0.569184 0.104514
vt 0.638368 0.197743
vt 0.011285 0.802260
vt 0.011285 0.615802
vt 0.057899 0.615802
vt 0.429341 0.802257
vt 0.615798 0.802257
vt 0.104514 0.615802
vt 0.151128 0.802260
vt 0.824827 0.220313
vt 0.638368 0.266927
vt 0.104514 0.802260
vt 0.638368 0.406771
vt 0.475954 0.779687
vt 0.522570 0.384202
vt 0.522569 0.057899
vt 0.104517 0.011286
vt 0.360156 0.057900
vt 0.360157 0.337586
vt 0.151129 0.290972
vt 0.151130 0.337587
vt 0.475954 0.057899
vt 0.057900 0.104514
vt 0.313543 0.384202
vt 0.615799 0.942101
vt 0.824826 0.615799
vt 0.429340 0.686459
vt 0.569183 0.686459
vt 0.824826 0.011285
vt 0.220313 0.615802
vt 0.220313 0.755646
vt 0.824826 0.638369
vt 0.429340 0.104515
vt 0.569183 0.733074
vt 0.406771 0.104514
vt 0.824826 0.429341
vt 0.104514 0.593232
vt 0.615799 0.104514
vt 0.824827 0.197743
vt 0.057899 0.802260
vt 0.638368 0.220313
vn -0.707083 0.707083 0.000000
vn -0.577349 0.577349 0.577349
vn 0.000000 0.707083 0.707083
vn 0.000000 -0.707083 -0.707083
vn 0.301492 -0.904508 0.301492
vn -0.707083 -0.707083 0.000000
vn 0.301492 0.301492 -0.904508
vn -0.301492 0.301492 -0.904508
vn 0.904508 0.301492 -0.301492
vn -0.577349 0.577349 -0.577349
vn -0.577349 -0.577349 -0.577349
vn 0.577349 -0.577349 -0.577349
vn 0.707083 -0.707083 0.000000
vn -0.301492 -0.904508 0.301492
vn 0.301492 -0.904508 -0.301492
vn 0.000000 -0.707083 0.707083
vn 0.000000 0.707083 -0.707083
vn -0.301492 0.904508 0.301492
vn 0.707083 0.707083 0.000000
vn -0.301492 0.904508 -0.301492
vn 0.301492 0.904508 0.301492
vn 0.577349 0.577349 0.577349
vn 0.577349 -0.577349 0.577349
vn 0.904508 -0.301492 -0.301492
vn -0.577349 -0.577349 0.577349
vn -0.301492 0.301492 0.904508
vn 0.301492 -0.301492 -0.904508
vn -0.301492 -0.904508 -0.301492
vn -0.904508 0.301492 -0.301492
vn -0.904508 0.301492 0.301492
vn 0.577349 0.577349 -0.577349
vn -0.904508 -0.301492 -0.301492
vn 0.904508 0.301492 0.301492
vn 0.301492 0.301492 0.904508
vn -0.301492 -0.301492 -0.904508
vn 0.301492 -0.301492 0.904508
vn -0.301492 -0.301492 0.904508
vn 0.301492 0.904508 -0.301492
vn -0.904508 -0.301492 0.301492
vn 0.904508 -0.301492 0.301492
s 1
f 36/1/1 48/2/2 47/3/3
f 51/4/4 37/5/5 38/6/6
f 27/7/7 18/8/8 49/9/4
f 7/10/9 15/11/10 13/12/11
f 50/13/12 4/14/13 5/15/14
f 40/16/6 39/17/15 55/18/16
f 42/19/17 3/20/18 2/21/19
f 31/22/19 30/23/20 46/24/3
f 37/25/5 51/26/4 49/9/4
f 44/27/10 33/28/1 32/29/21
f 45/30/22 53/31/23 12/32/24
f 30/33/20 3/34/18 16/35/25
f 14/36/26 53/31/23 45/30/22
f 43/37/17 25/38/27 44/27/10
f 49/39/4 18/40/8 50/13/12
f 8/41/28 6/42/13 53/31/23
f 40/43/6 10/44/29 29/45/30
f 5/46/14 4/47/13 6/48/13
f 24/49/31 39/50/15 37/51/5
f 29/52/30 44/27/10 52/53/11
f 24/54/31 10/55/29 23/56/32
f 8/57/28 39/58/15 24/59/31
f 54/60/16 55/61/16 39/58/15
f 20/62/33 4/14/13 50/13/12
f 9/63/34 24/64/31 22/65/12
f 14/66/26 9/67/34 55/61/16
f 16/68/25 3/69/18 32/70/21
f 15/71/10 19/72/2 5/46/14
f 43/73/17 42/74/17 1/75/35
f 25/38/27 26/76/23 28/77/22
f 39/50/15 40/43/6 38/78/6
f 28/79/22 37/25/5 5/80/14
f 21/81/36 22/82/12 13/83/11
f 1/84/35 18/40/8 19/85/2
f 23/56/32 56/86/25 48/2/2
f 56/86/25 55/87/16 9/63/34
f 26/88/23 22/89/12 23/90/32
f 2/91/19 3/34/18 30/33/20
f 15/92/10 14/36/26 11/93/37
f 29/45/30 10/44/29 24/94/31
f 35/95/38 22/96/12 26/97/23
f 34/98/39 23/90/32 36/99/1
f 28/100/22 19/101/2 18/8/8
f 3/69/18 42/74/17 43/73/17
f 36/99/1 35/95/38 32/102/21
f 1/75/35 16/103/25 26/104/23
f 29/52/30 28/105/22 26/106/23
f 17/107/40 2/91/19 31/108/19
f 4/47/13 20/109/33 7/110/9
f 19/111/2 20/62/33 17/112/40
f 24/113/31 9/67/34 14/66/26
f 13/114/11 22/115/12 35/116/38
f 20/109/33 19/117/2 15/118/10
f 47/119/3 21/81/36 11/120/37
f 16/121/25 17/107/40 12/122/24
f 35/116/38 47/119/3 46/123/3
f 13/124/11 30/33/20 16/35/25
f 35/125/38 36/1/1 47/3/3
f 52/53/11 51/4/4 38/6/6
f 51/26/4 27/7/7 49/9/4
f 12/32/24 7/10/9 13/12/11
f 49/126/4 50/13/12 5/15/14
f 56/86/25 40/16/6 55/18/16
f 41/127/31 42/19/17 2/21/19
f 45/30/22 31/22/19 46/24/3
f 5/80/14 37/25/5 49/9/4
f 43/128/17 44/27/10 32/29/21
f 53/31/23 7/10/9 12/32/24
f 6/42/13 7/10/9 53/31/23
f 31/22/19 45/30/22 12/32/24
f 45/30/22 46/129/3 11/93/37
f 14/36/26 54/130/16 53/31/23
f 25/38/27 27/131/7 44/27/10
f 11/93/37 14/36/26 45/30/22
f 27/131/7 51/132/4 52/53/11
f 1/84/35 42/133/17 41/127/31
f 18/40/8 1/84/35 50/13/12
f 27/131/7 52/53/11 44/27/10
f 34/134/39 33/28/1 44/27/10
f 54/135/16 8/41/28 53/31/23
f 1/84/35 41/127/31 50/13/12
f 38/78/6 40/43/6 29/45/30
f 8/136/28 5/46/14 6/48/13
f 28/137/22 24/49/31 37/51/5
f 22/138/12 24/54/31 23/56/32
f 29/52/30 34/134/39 44/27/10
f 38/6/6 29/52/30 52/53/11
f 21/139/36 9/63/34 22/65/12
f 15/140/10 8/57/28 24/59/31
f 8/57/28 54/60/16 39/58/15
f 2/21/19 17/112/40 41/127/31
f 10/55/29 40/16/6 56/86/25
f 50/13/12 41/127/31 17/112/40
f 20/62/33 50/13/12 17/112/40
f 54/60/16 14/66/26 55/61/16
f 26/141/23 16/68/25 32/70/21
f 8/136/28 15/71/10 5/46/14
f 25/142/27 43/73/17 1/75/35
f 27/131/7 25/38/27 28/77/22
f 37/51/5 39/50/15 38/78/6
f 19/143/2 28/79/22 5/80/14
f 11/120/37 21/81/36 13/83/11
f 16/144/25 1/84/35 19/85/2
f 23/56/32 10/55/29 56/86/25
f 36/1/1 23/56/32 48/2/2
f 34/98/39 26/88/23 23/90/32
f 56/86/25 21/139/36 48/2/2
f 56/86/25 9/63/34 21/139/36
f 21/139/36 47/145/3 48/2/2
f 31/108/19 2/91/19 30/33/20
f 13/146/11 15/92/10 11/93/37
f 28/147/22 29/45/30 24/94/31
f 32/102/21 35/95/38 26/97/23
f 33/148/1 34/98/39 36/99/1
f 27/7/7 28/100/22 18/8/8
f 32/70/21 3/69/18 43/73/17
f 33/148/1 36/99/1 32/102/21
f 25/142/27 1/75/35 26/104/23
f 34/134/39 29/52/30 26/106/23
f 12/122/24 17/107/40 31/108/19
f 6/48/13 4/47/13 7/110/9
f 16/149/25 19/111/2 17/112/40
f 15/150/10 24/113/31 14/66/26
f 30/151/20 13/114/11 35/116/38
f 7/110/9 20/109/33 15/118/10
f 46/123/3 47/119/3 11/120/37
f 13/152/11 16/121/25 12/122/24
f 30/151/20 35/116/38 46/123/3
